<?xml version="1.0" standalone="no"?>
<!DOCTYPE svg PUBLIC "-//W3C//DTD SVG 20010904//EN"
 "http://www.w3.org/TR/2001/REC-SVG-20010904/DTD/svg10.dtd">
<svg version="1.0" xmlns="http://www.w3.org/2000/svg"
 width="600.000000pt" height="480.000000pt" viewBox="0 0 600.000000 480.000000"
 preserveAspectRatio="xMidYMid meet">

<g transform="translate(0.000000,480.000000) scale(0.100000,-0.100000)"
fill="#000000" stroke="none">
<path d="M2925 3881 c-46 -20 -71 -44 -207 -193 -54 -59 -98 -115 -98 -125 0
-48 349 -593 380 -593 29 0 380 548 380 594 0 16 -41 63 -204 235 -92 97 -165
121 -251 82z"/>
<path d="M2248 3233 c-115 -99 -317 -261 -375 -302 -18 -12 -33 -28 -33 -35 0
-7 21 -21 48 -31 26 -10 109 -44 185 -76 75 -33 143 -59 151 -59 9 0 19 31 31
93 21 110 64 258 111 385 28 74 33 96 23 108 -6 8 -15 14 -20 14 -4 0 -59 -44
-121 -97z"/>
<path d="M3610 3316 c-9 -12 -4 -35 24 -113 50 -135 83 -250 107 -368 11 -55
23 -103 27 -107 4 -4 43 9 87 28 44 19 131 56 193 81 69 28 112 50 110 58 -2
7 -57 54 -123 106 -66 51 -182 146 -258 211 -76 65 -142 118 -147 118 -4 0
-13 -7 -20 -14z"/>
<path d="M2563 3052 c-20 -13 -87 -300 -98 -424 l-6 -63 76 -65 c42 -36 165
-154 272 -264 l195 -199 91 99 c104 114 284 290 374 366 34 29 65 62 68 74 8
26 -18 185 -56 343 -26 112 -39 140 -61 141 -8 0 -149 -226 -300 -480 -58 -96
-111 -176 -119 -178 -9 -2 -37 38 -78 110 -35 62 -111 190 -169 283 -58 94
-117 189 -131 212 -28 45 -41 55 -58 45z"/>
<path d="M4603 1699 c-64 -18 -84 -94 -39 -146 22 -25 31 -28 105 -31 l81 -4
0 -34 c0 -39 -17 -47 -96 -42 -40 2 -51 7 -59 26 -11 25 -55 31 -55 7 0 -57
46 -85 139 -85 99 0 151 56 122 132 -14 36 -33 44 -123 53 -43 4 -81 11 -84
16 -3 6 -3 21 0 35 6 23 11 24 75 24 60 0 69 -2 74 -20 3 -12 14 -20 25 -20
28 0 34 13 22 45 -18 47 -106 67 -187 44z"/>
<path d="M142 1548 l3 -153 27 -3 27 -3 3 96 3 96 40 -93 c38 -86 43 -93 71
-96 29 -3 32 0 69 85 21 48 42 92 47 98 4 5 8 -35 8 -88 0 -97 0 -97 25 -97
l25 0 0 155 0 155 -33 0 c-32 0 -34 -2 -81 -112 -26 -62 -51 -116 -55 -120 -3
-4 -29 45 -57 110 l-51 117 -37 3 -37 3 3 -153z"/>
<path d="M701 1678 c-28 -72 -104 -265 -108 -275 -3 -9 5 -13 25 -13 26 0 32
5 42 35 l12 35 67 0 c67 0 67 0 84 -35 13 -26 23 -35 42 -35 14 0 25 1 25 3 0
1 -26 70 -58 152 -57 148 -58 150 -90 153 -26 3 -34 -1 -41 -20z m49 -63 c0
-2 9 -27 20 -55 l20 -50 -49 0 -49 0 21 55 c11 30 24 55 28 55 5 0 9 -2 9 -5z"/>
<path d="M990 1593 c0 -160 28 -203 133 -203 107 0 137 44 137 205 l0 105 -27
0 -28 0 0 -114 c0 -76 -4 -119 -12 -127 -19 -19 -105 -23 -128 -6 -17 13 -20
30 -23 131 -4 115 -4 116 -28 116 -24 0 -24 -1 -24 -107z"/>
<path d="M1360 1545 l0 -155 25 0 c24 0 25 3 25 55 l0 55 39 0 c37 0 41 -3 71
-55 27 -48 36 -55 62 -55 l30 0 -32 57 c-29 51 -30 57 -15 66 26 14 47 73 39
113 -11 59 -42 74 -150 74 l-94 0 0 -155z m188 61 c4 -48 -6 -56 -80 -56 l-58
0 0 50 0 51 68 -3 67 -3 3 -39z"/>
<path d="M1686 1688 c4 -7 28 -42 53 -78 43 -60 46 -70 51 -140 5 -72 6 -75
30 -75 24 0 25 3 30 75 5 70 8 80 51 140 66 94 65 90 27 90 -29 0 -37 -7 -68
-55 -19 -30 -37 -55 -40 -55 -3 1 -21 24 -40 53 -29 43 -41 53 -69 55 -25 3
-31 0 -25 -10z"/>
<path d="M2061 1558 c-30 -79 -56 -149 -58 -155 -3 -9 4 -13 21 -13 20 0 30 8
43 35 l17 36 66 -3 c63 -3 65 -4 79 -35 11 -24 21 -33 38 -33 13 0 23 6 23 13
0 6 -24 75 -54 152 -53 140 -53 140 -87 143 l-34 2 -54 -142z m117 5 l21 -53
-49 0 -49 0 22 60 c12 32 24 56 28 52 3 -4 15 -31 27 -59z"/>
<path d="M2562 1575 c3 -120 4 -126 30 -151 21 -21 39 -28 82 -32 118 -10 147
27 154 196 l5 112 -32 0 -31 0 0 -114 c0 -107 -1 -116 -22 -130 -32 -23 -94
-20 -118 4 -18 18 -20 33 -20 130 l0 110 -26 0 -26 0 4 -125z"/>
<path d="M2930 1545 l0 -155 25 0 c24 0 24 0 27 114 l3 115 78 -115 c70 -102
81 -114 108 -114 l29 0 0 155 0 155 -25 0 c-24 0 -24 0 -27 -111 l-3 -111 -75
111 c-69 104 -77 111 -107 111 l-33 0 0 -155z"/>
<path d="M3302 1548 l3 -153 25 0 25 0 3 153 3 152 -31 0 -31 0 3 -152z"/>
<path d="M3460 1697 c0 -2 26 -70 58 -152 56 -144 59 -150 88 -153 30 -3 30
-3 87 145 32 81 57 152 57 156 0 5 -12 7 -26 5 -24 -3 -31 -15 -68 -110 -22
-58 -44 -109 -47 -112 -3 -4 -26 45 -50 109 -41 109 -45 115 -71 115 -16 0
-28 -1 -28 -3z"/>
<path d="M3860 1545 l0 -155 116 0 115 0 -3 28 c-3 27 -3 27 -90 30 l-88 3 0
34 0 35 65 0 c63 0 65 1 65 25 0 24 -2 25 -65 25 l-65 0 0 40 0 40 90 0 c89 0
90 0 90 25 l0 25 -115 0 -115 0 0 -155z"/>
<path d="M4190 1545 l0 -155 25 0 c24 0 25 3 25 55 l0 55 39 0 c37 0 41 -3 70
-55 25 -44 36 -55 56 -55 32 0 31 11 -1 66 l-27 45 21 15 c45 32 48 130 4 164
-21 17 -40 20 -118 20 l-94 0 0 -155z m188 61 c4 -48 -6 -56 -80 -56 l-58 0 0
50 0 51 68 -3 67 -3 3 -39z"/>
<path d="M4910 1545 l0 -155 25 0 25 0 0 155 0 155 -25 0 -25 0 0 -155z"/>
<path d="M5060 1675 c0 -23 3 -25 50 -25 l50 0 0 -130 0 -130 25 0 25 0 0 130
0 130 50 0 c47 0 50 2 50 25 l0 25 -125 0 -125 0 0 -25z"/>
<path d="M5469 1612 c60 -86 61 -88 61 -155 0 -65 1 -67 25 -67 24 0 25 2 25
71 0 70 1 72 55 151 30 44 55 81 55 84 0 2 -13 4 -30 4 -25 0 -36 -9 -66 -55
-20 -30 -40 -53 -43 -50 -4 2 -23 26 -41 54 -30 44 -40 51 -68 51 l-33 0 60
-88z"/>
<path d="M1030 1160 c0 -11 5 -20 10 -20 6 0 10 9 10 20 0 11 -4 20 -10 20 -5
0 -10 -9 -10 -20z"/>
<path d="M1060 1160 c0 -11 5 -20 10 -20 6 0 10 9 10 20 0 11 -4 20 -10 20 -5
0 -10 -9 -10 -20z"/>
<path d="M1170 1110 l0 -70 50 0 c28 0 50 5 50 10 0 6 -18 10 -40 10 l-40 0 0
60 c0 33 -4 60 -10 60 -6 0 -10 -30 -10 -70z"/>
<path d="M1350 1110 l0 -70 50 0 c58 0 68 17 13 22 -27 2 -39 8 -41 21 -3 13
3 17 27 17 38 0 41 18 4 22 -17 2 -29 10 -31 21 -3 14 4 17 37 17 23 0 41 5
41 10 0 6 -22 10 -50 10 l-50 0 0 -70z"/>
<path d="M1566 1114 c-25 -67 -26 -95 -2 -61 17 23 72 23 85 0 5 -10 12 -15
15 -12 11 10 -41 134 -57 137 -10 2 -23 -18 -41 -64z m64 -16 c0 -5 -9 -8 -20
-8 -20 0 -25 15 -13 45 5 15 8 14 19 -6 7 -13 13 -27 14 -31z"/>
<path d="M1760 1110 c0 -40 4 -70 10 -70 6 0 10 11 10 25 0 18 5 25 20 25 12
0 25 -10 32 -25 6 -14 17 -25 25 -25 11 0 11 6 -2 30 -9 17 -11 30 -5 30 16 0
24 49 10 65 -8 9 -30 15 -56 15 l-44 0 0 -70z m85 25 c0 -15 -8 -21 -32 -23
-30 -3 -33 -1 -33 23 0 24 3 26 33 23 24 -2 32 -8 32 -23z"/>
<path d="M1950 1116 c0 -36 5 -68 10 -71 6 -4 10 13 10 44 0 28 4 51 9 51 5 0
23 -22 41 -50 46 -71 60 -66 60 20 0 81 -18 95 -22 18 l-3 -53 -35 52 c-20 30
-43 53 -52 53 -15 0 -18 -10 -18 -64z"/>
<path d="M2392 1168 c-7 -7 -12 -31 -12 -54 0 -47 25 -74 67 -74 28 0 63 33
63 60 0 16 -7 20 -30 20 -16 0 -30 -4 -30 -10 0 -5 9 -10 21 -10 11 0 19 -5
17 -12 -7 -21 -34 -31 -62 -24 -25 6 -27 10 -24 49 3 42 3 42 46 45 23 2 42 7
42 13 0 13 -84 11 -98 -3z"/>
<path d="M2590 1111 c0 -41 4 -71 10 -71 6 0 10 11 10 25 0 20 5 25 23 25 16
0 28 -9 35 -25 6 -14 16 -25 22 -25 13 0 13 6 -1 31 -7 15 -7 24 1 34 6 8 10
26 8 42 -3 26 -6 28 -55 31 l-53 3 0 -70z m88 27 c-2 -18 -10 -23 -33 -23 -23
0 -31 5 -33 23 -3 19 1 22 33 22 32 0 36 -3 33 -22z"/>
<path d="M2800 1161 c-29 -55 4 -121 60 -121 59 0 90 67 54 118 -21 30 -98 32
-114 3z m106 -25 c9 -37 -4 -65 -33 -72 -34 -9 -57 6 -61 40 -6 45 4 56 47 56
35 0 42 -4 47 -24z"/>
<path d="M3010 1172 c0 -26 44 -132 54 -129 6 2 17 24 25 50 8 26 17 47 20 47
3 0 13 -21 21 -47 8 -26 20 -48 26 -50 10 -3 54 103 54 129 0 24 -18 1 -34
-44 l-19 -53 -17 50 c-9 28 -23 50 -30 50 -7 0 -21 -22 -30 -50 l-18 -50 -11
28 c-6 15 -14 39 -17 52 -6 23 -24 36 -24 17z"/>
<path d="M3527 1174 c-11 -11 -8 -49 5 -62 7 -7 27 -12 46 -12 26 0 33 -4 30
-17 -4 -21 -45 -30 -61 -14 -15 15 -27 14 -27 -4 0 -19 46 -30 79 -19 20 7 26
16 26 39 0 27 -3 30 -40 35 -29 4 -41 10 -43 24 -4 17 1 18 42 14 33 -4 46 -2
43 6 -4 12 -89 21 -100 10z"/>
<path d="M3720 1126 c0 -61 16 -86 56 -86 40 0 64 33 64 90 0 28 -4 50 -10 50
-5 0 -10 -22 -10 -49 0 -56 -17 -76 -55 -67 -23 6 -25 11 -25 61 0 30 -4 55
-10 55 -5 0 -10 -24 -10 -54z"/>
<path d="M3934 1155 c-20 -31 -11 -90 16 -105 27 -14 63 -12 86 5 18 14 16 15
-22 9 -59 -9 -89 26 -68 80 4 11 19 16 50 16 24 0 44 5 44 10 0 6 -20 10 -45
10 -36 0 -47 -4 -61 -25z"/>
<path d="M4142 1168 c-7 -7 -12 -31 -12 -55 0 -54 31 -79 85 -69 48 9 45 28
-3 20 -47 -7 -65 10 -60 58 3 31 5 33 46 36 23 2 42 7 42 13 0 13 -84 11 -98
-3z"/>
<path d="M4340 1110 l0 -70 50 0 c58 0 68 17 13 22 -27 2 -39 8 -41 21 -3 13
3 17 27 17 17 0 31 5 31 10 0 6 -13 10 -30 10 -23 0 -30 4 -30 20 0 17 7 20
40 20 22 0 40 5 40 10 0 6 -22 10 -50 10 l-50 0 0 -70z"/>
<path d="M4530 1110 l0 -70 50 0 c28 0 50 5 50 10 0 6 -18 10 -40 10 -33 0
-40 3 -40 20 0 16 7 20 30 20 17 0 30 5 30 10 0 6 -13 10 -30 10 -23 0 -30 4
-30 20 0 17 7 20 40 20 22 0 40 5 40 10 0 6 -22 10 -50 10 l-50 0 0 -70z"/>
<path d="M4710 1109 l0 -72 46 6 c56 6 78 26 78 71 0 50 -18 66 -75 66 l-49 0
0 -71z m98 5 c3 -39 1 -42 -29 -48 -43 -8 -49 -2 -49 50 l0 45 38 -3 c36 -3
37 -4 40 -44z"/>
<path d="M4920 1160 c0 -11 5 -20 10 -20 6 0 10 9 10 20 0 11 -4 20 -10 20 -5
0 -10 -9 -10 -20z"/>
<path d="M4950 1160 c0 -11 5 -20 10 -20 6 0 10 9 10 20 0 11 -4 20 -10 20 -5
0 -10 -9 -10 -20z"/>
<path d="M2163 1040 c1 -11 5 -20 9 -20 4 0 8 9 8 20 0 11 -4 20 -9 20 -6 0
-9 -9 -8 -20z"/>
<path d="M3303 1041 c0 -11 5 -17 9 -15 11 7 10 34 -1 34 -6 0 -9 -9 -8 -19z"/>
</g>
</svg>
